<?xml version="1.0" encoding="iso-8859-1"?>
<!-- Generator: Adobe Illustrator 19.1.0, SVG Export Plug-In . SVG Version: 6.00 Build 0)  -->
<svg version="1.1" id="Capa_1" xmlns="http://www.w3.org/2000/svg" xmlns:xlink="http://www.w3.org/1999/xlink" x="0px" y="0px"
	 viewBox="0 0 218.333 218.333" style="enable-background:new 0 0 218.333 218.333;" xml:space="preserve">
<g>
	<g id="group-30svg">
		<path id="path-1_92_" style="fill:#2476FF;" d="M158.093,192.859h17.449c3.365,0,6.092,1.603,6.092,3.58
			c0,1.979-2.727,3.582-6.092,3.582h-0.812c-3.365,0-6.092,1.603-6.092,3.582c0,1.977,2.727,3.581,6.092,3.581h37.511
			c3.364,0,6.092,1.603,6.092,3.581c0,1.978-2.728,3.581-6.092,3.581h-45.079h-49.546c-3.365,0-6.092-1.603-6.092-3.581
			c0-1.978,2.727-3.581,6.092-3.581h10.411c3.364,0,6.092-1.604,6.092-3.581c0-1.979-2.728-3.582-6.092-3.582H78.48
			c-3.364,0-6.091-1.603-6.091-3.582c0-1.977,2.727-3.58,6.091-3.58h11.71H158.093z"/>
		<path id="path-2_92_" style="fill:#2476FF;" d="M27.681,184.613h5.635c1.087,0,1.968,1.603,1.968,3.581
			c0,1.978-0.881,3.581-1.968,3.581h-0.263c-1.086,0-1.967,1.603-1.967,3.582c0,1.978,0.881,3.581,1.967,3.581h12.116
			c1.086,0,1.967,1.604,1.967,3.581c0,1.978-0.881,3.582-1.967,3.582h-14.56H14.607c-1.086,0-1.967-1.604-1.967-3.582
			c0-1.977,0.881-3.581,1.967-3.581h3.363c1.086,0,1.967-1.603,1.967-3.581c0-1.979-0.881-3.582-1.967-3.582H1.968
			c-1.086,0-1.968-1.603-1.968-3.581c0-1.978,0.882-3.581,1.968-3.581H5.75H27.681z"/>
		<path id="path-3_92_" style="fill:#2476FF;" d="M81.314,216.523c3.455,0,6.255-1.711,6.255-3.822c0-2.11-2.8-3.821-6.255-3.821
			h-19.17c-3.454,0-6.255,1.711-6.255,3.821c0,2.111,2.801,3.822,6.255,3.822H81.314z"/>
		<path id="path-4_91_" style="fill:#FF3A2F;" d="M140.489,167.753H86.373l9.832-142.839h34.453L140.489,167.753z"/>
		<path id="path-5_91_" style="opacity:0.25;fill:#020403;enable-background:new    ;" d="M116.569,31.893l9.351,135.86h14.569
			l-9.831-142.839H96.205l-0.481,6.979H116.569z"/>
		<path id="path-6_90_" style="fill:#142A3B;" d="M157.117,193.723H69.745v-25.97h87.372V193.723z"/>
		<path id="path-7_90_" style="opacity:0.35;fill:#020403;enable-background:new    ;" d="M127.177,167.753v25.97h29.94v-25.97
			H127.177z"/>
		<path id="path-8_87_" style="fill:#FBB713;" d="M135.023,24.914c0.041-0.54,0.084-1.08,0.084-1.63
			c0-11.859-9.704-21.473-21.676-21.473c-11.971,0-21.675,9.614-21.675,21.473c0,0.55,0.042,1.09,0.083,1.63H135.023z"/>
		<path id="path-9_83_" style="opacity:0.25;fill:#020403;enable-background:new    ;" d="M113.431,1.81
			c-2.47,0-4.833,0.43-7.044,1.183c8.508,2.9,14.631,10.878,14.631,20.29c0,0.551-0.042,1.091-0.084,1.631h14.089
			c0.041-0.54,0.084-1.08,0.084-1.631C135.107,11.425,125.403,1.81,113.431,1.81z"/>
		<path id="path-10_76_" style="fill:#142A3B;" d="M147.839,70.721H79.022v-7.21h68.817V70.721z"/>
		<path id="path-11_67_" style="fill:#EDEDED;" d="M123.497,67.116h-20.132l2.162-12.844c0.644-3.828,3.987-6.634,7.904-6.634l0,0
			c3.918,0,7.261,2.806,7.905,6.634L123.497,67.116z"/>
		<path id="path-12_57_" style="fill:#EDEDED;" d="M135.103,117.066c-0.599,0-1.206-0.146-1.766-0.456l-43.35-23.912
			c-1.757-0.968-2.388-3.164-1.409-4.903c0.977-1.739,3.196-2.365,4.949-1.396l43.349,23.913c1.758,0.969,2.388,3.163,1.41,4.903
			C137.621,116.399,136.38,117.066,135.103,117.066z"/>
		<path id="path-13_46_" style="fill:#EDEDED;" d="M135.103,151.96c-0.599,0-1.206-0.147-1.766-0.456l-43.35-23.912
			c-1.757-0.969-2.388-3.165-1.409-4.904c0.977-1.739,3.196-2.364,4.949-1.396l43.349,23.913c1.758,0.968,2.388,3.164,1.41,4.903
			C137.621,151.292,136.38,151.96,135.103,151.96z"/>
		<path id="path-14_38_" style="fill:#FFFFFF;" d="M109.46,10.734c0,1.285-1.051,2.327-2.348,2.327
			c-1.297,0-2.348-1.042-2.348-2.327s1.051-2.326,2.348-2.326C108.409,8.408,109.46,9.449,109.46,10.734z"/>
		<path id="path-15_32_" style="fill:#FFFFFF;" d="M104.31,17.713c0,2.321-1.899,4.204-4.242,4.204
			c-2.345,0-4.244-1.883-4.244-4.204c0-2.322,1.899-4.204,4.244-4.204C102.411,13.509,104.31,15.391,104.31,17.713z"/>
	</g>
</g>
<g>
</g>
<g>
</g>
<g>
</g>
<g>
</g>
<g>
</g>
<g>
</g>
<g>
</g>
<g>
</g>
<g>
</g>
<g>
</g>
<g>
</g>
<g>
</g>
<g>
</g>
<g>
</g>
<g>
</g>
</svg>
