<?xml version="1.0" encoding="utf-8"?>
<!-- Generator: Adobe Illustrator 16.0.0, SVG Export Plug-In . SVG Version: 6.00 Build 0)  -->
<!DOCTYPE svg PUBLIC "-//W3C//DTD SVG 1.1//EN" "http://www.w3.org/Graphics/SVG/1.1/DTD/svg11.dtd">
<svg version="1.1" id="Layer_1" xmlns="http://www.w3.org/2000/svg" xmlns:xlink="http://www.w3.org/1999/xlink" x="0px" y="0px"
	 width="1366px" height="768px" viewBox="0 0 1366 768" enable-background="new 0 0 1366 768" xml:space="preserve">
<path display="none" fill="#DDE6E8" d="M1157.188,223h-3.404c-2.189-13-14.134-24-28.545-24h-117.904c-14.412,0-26.355,11-28.545,24
	h-61.977C891.604,223,871,243.99,871,269.196v4.564C871,298.967,891.604,320,916.813,320h20.044c-0.173,0-0.267,2.315-0.267,3.611
	c0,13.023,9.099,23.389,20.321,23.389h163.221c11.224,0,20.32-10.365,20.32-23.389c0-1.296-0.093-3.611-0.267-3.611h17.002
	c25.207,0,45.813-21.033,45.813-46.239v-4.564C1203,243.99,1182.395,223,1157.188,223z"/>
<path display="none" fill="#E7F1F2" d="M1038.536,84h3.184c2.047-13,13.217-23,26.692-23h110.258c13.477,0,24.646,10,26.692,23
	h57.957c23.571,0,42.681,18.872,42.681,42.443v4.268c0,23.571-19.109,42.289-42.681,42.289h-18.744c0.162,2,0.249,2.541,0.249,3.752
	c0,12.179-8.508,22.248-19.002,22.248h-152.634c-10.495,0-19.003-10.068-19.003-22.248c0-1.211,0.088-1.752,0.249-3.752h-15.898
	C1014.965,173,996,154.283,996,130.711v-4.268C996,102.872,1014.965,84,1038.536,84z"/>
<path display="none" fill="#CFE1E5" d="M959.093,100h-9.747c-6.268-39-40.464-70-81.722-70H530.066c-41.258,0-75.453,31-81.72,70
	H270.908C198.741,100,140,158.945,140,231.111v13.067C140,316.344,198.741,375,270.908,375h57.386c-0.495,4-0.763,7.48-0.763,11.188
	c0,37.286,26.047,67.812,58.177,67.812h467.295c32.132,0,58.178-30.525,58.178-67.812c0-3.708-0.267-7.188-0.764-11.188h48.676
	C1031.258,375,1090,316.344,1090,244.178v-13.067C1090,158.945,1031.258,100,959.093,100z"/>
<polygon display="none" fill="#CFE1E5" points="1349.759,526 1327.5,138 1277.5,138 1256.241,526 -1,526 -1,768 1365,768 1365,526 
	"/>
<rect x="-16" y="702" display="none" fill="#005461" width="1406" height="6"/>
<g display="none">
	<circle display="inline" fill="#005461" cx="185.5" cy="705" r="12.5"/>
	<circle display="inline" fill="#005461" cx="519.5" cy="704" r="12.5"/>
	<circle display="inline" fill="#005461" cx="851.5" cy="705" r="12.5"/>
	<circle display="inline" fill="#005461" cx="1190.5" cy="704" r="12.5"/>
</g>
<g display="none">
	<rect x="182" y="553" display="inline" fill="#005461" width="6" height="157"/>
	<rect x="516" y="553" display="inline" fill="#005461" width="6" height="157"/>
	<rect x="849" y="553" display="inline" fill="#005461" width="6" height="157"/>
	<rect x="1187" y="553" display="inline" fill="#005461" width="6" height="157"/>
</g>
<g>
	<rect x="38" y="495" display="none" fill="#EF7532" width="294" height="137"/>
	<rect x="1037" y="494" display="none" fill="#005361" width="294" height="137"/>
	<rect x="372" y="495" fill="#F4AB4C" width="294" height="137"/>
	<rect x="704" y="495" display="none" fill="#3391AA" width="294" height="138"/>
	<circle display="none" fill="#FFFFFF" stroke="#EF7532" stroke-width="5" stroke-miterlimit="10" cx="185.5" cy="622.5" r="35.5"/>
	<circle fill="#FFFFFF" stroke="#F4AB4C" stroke-width="5" stroke-miterlimit="10" cx="519.5" cy="622.5" r="35.5"/>
	<circle display="none" fill="#FFFFFF" stroke="#3391AA" stroke-width="5" stroke-miterlimit="10" cx="851.5" cy="622.5" r="35.5"/>
	
		<circle display="none" fill="#FFFFFF" stroke="#005361" stroke-width="5" stroke-miterlimit="10" cx="1190.5" cy="622.5" r="35.5"/>
	<g>
		<g display="none">
			<path display="inline" fill-rule="evenodd" clip-rule="evenodd" fill="#005461" d="M176.71,616.301
				c0.485,1.402,0.555,2.924,1.268,3.338c0.911,0.527,2.355,0.055,3.542,0.217c0.893,0.121,1.743,0.564,2.612,0.863
				c-2.334,4.117,0.615,4.285,3.415,4.639c0.217,0.025,0.363,0.621,0.701,1.244c-4.367,2.088-3.283,4.709,0.607,7.619
				c-1.95,0.252-2.743,0.414-3.541,0.445c-2.304,0.088-2.827,1.258-2.232,3.328c0.18,0.627-0.03,1.365-0.062,2.053
				c-0.768-0.166-1.693-0.115-2.274-0.539c-1.958-1.428-3.206-1.24-3.98,1.203c-0.196,0.617-0.88,1.08-1.34,1.615
				c-0.507-0.6-1.252-1.117-1.479-1.807c-0.764-2.334-1.961-2.766-3.971-1.336c-0.516,0.367-1.317,0.555-1.932,0.463
				c-0.276-0.043-0.74-1.148-0.566-1.488c1.844-3.609-0.146-4.221-3.128-4.244c-0.361-0.004-0.717-0.586-1.417-1.197
				c0.933-0.727,2.153-1.199,2.296-1.896c0.24-1.16-0.125-2.48-0.398-3.697c-0.167-0.74-0.637-1.414-0.971-2.117
				c0.654-0.207,1.319-0.617,1.961-0.586c2.529,0.125,3.175-1.012,2.562-3.313c-0.168-0.629-0.111-1.432,0.161-2.006
				c0.107-0.225,1.323-0.287,1.632,0.004c2.958,2.783,4.114,0.988,4.993-1.824C175.252,617.02,175.76,616.889,176.71,616.301z
				 M175.831,623.379c-3.277-0.059-6.143,2.746-6.195,6.061c-0.054,3.359,2.654,6.191,5.977,6.252
				c3.32,0.059,6.105-2.672,6.166-6.043C181.839,626.275,179.146,623.436,175.831,623.379z"/>
			<path display="inline" fill-rule="evenodd" clip-rule="evenodd" fill="#005461" d="M198.73,620.172
				c-3.183-1.266-5.273-1.219-5.368,2.918c-2.174-1.672-3.854-4.602-6.467-0.641c-0.764-2.859-0.267-6.543-5.585-3.971
				c1.985-3.248,4.686-5.633-0.987-6.781c3.168-1.568,5.973-2.504,3.122-6.098c2.952,0.207,6.292,1.926,5.572-3.822
				c2.407,2.646,3.94,5.738,6.658,1.061c0.561,3.258,0.479,6.424,5.087,4.725c-0.916,1.816-2,2.984-1.881,4.012
				c0.111,0.963,1.498,1.777,2.529,2.877C199.219,615.514,196.196,616.258,198.73,620.172z M196.194,613.059
				c-0.087-2.965-2.44-5.307-4.997-5.1c-2.977,0.24-4.624,2.066-4.784,4.973c-0.14,2.539,2.417,4.896,4.995,4.703
				C194.382,617.412,195.936,615.645,196.194,613.059z"/>
			<path display="inline" fill-rule="evenodd" clip-rule="evenodd" fill="#005461" d="M203.356,621.842
				c-0.712,4.072,0.507,5.682,4.708,4.66c-2.34,2.801-3.551,5.01-0.275,6.016c-1.177,1.828-2.269,3.521-3.36,5.217
				c-1.328,0.654-4.639-1.27-3.529,5.488c-2.635-4.174-4.482-5.436-6.246-3.18c-1.479-1.656-2.824-3.164-4.169-4.672
				c0.319-1.521,2.231-3.883-3.668-5.195c4.659-0.98,6.18-2.475,3.706-6.287c3.586,1.633,5.796,1.537,6.092-3.02
				C198.547,624.363,200.514,624.988,203.356,621.842z M203.2,631.207c-0.371-2.398-1.746-4.176-4.647-4.316
				c-2.735-0.131-4.958,2.059-4.846,4.781c0.119,2.887,1.82,4.451,4.591,4.68C200.893,636.564,203.247,634.129,203.2,631.207z"/>
			<path display="inline" fill-rule="evenodd" clip-rule="evenodd" fill="#005461" d="M198.05,431.926c0,5.189,0,10.261,0,15.604
				c-1.444,0.114-2.803,0.223-4.314,0.342c-0.937,2.604-0.955,4.605,2.37,5.484c1.165,0.309,2.499,1.129,3.121,2.116
				c1.781,2.825,4.219,3.821,7.903,3.167c0,6.252,0,12.199,0,18.555c3.421,0,6.349-0.129,9.253,0.072
				c0.958,0.066,1.857,0.986,2.783,1.516c-0.9,0.43-1.795,1.215-2.7,1.229c-7.183,0.104-14.369,0.059-21.553,0.059
				c-10.648,0.002-21.297,0.045-31.944-0.061c-1.257-0.012-2.506-0.848-3.759-1.301c1.199-0.512,2.39-1.045,3.604-1.521
				c0.345-0.135,0.757-0.1,1.479-0.18c0-18.85,0-37.723,0-57.229c-4.208,3.385-7.802,6.287-7.722,12.116
				c0.198,14.493,0.065,28.992,0.065,43.49c0,1.395,0,2.789,0,4.184c-0.313,0.029-0.627,0.061-0.94,0.092
				c-0.09-1.248-0.257-2.494-0.259-3.74c-0.019-15.011,0.046-30.021-0.082-45.031c-0.017-2.055-0.682-4.23-1.536-6.129
				c-2.206-4.906-2.728-9.77-0.784-14.693c3.644,1.799,7.148,3.529,11.268,5.563c0.237-3.214,0.394-5.325,0.562-7.603
				c1.953,0,3.695,0,5.675,0c0.214,1.684,0.417,3.286,0.687,5.412c8.309-2.189,18.207-0.262,22.336-10.839
				c5.176,4.019,6.664,11.644,3.575,18.312c-1.279-0.938-2.521-1.85-4.375-3.211c0,4.934,0,9.166,0,13.71
				C194.425,431.573,196.14,431.739,198.05,431.926z M194.24,476.173c1.942,0.408,3.884,0.814,6.029,1.264c0-5.977,0-11.044,0-16.32
				c-5.684,0-11.117,0-16.715,0c0,5.407,0,10.578,0,15.902c2.037,0,3.79,0,6.153,0c-5.823-5.09,1.437-8.103,1.336-12.429
				c1.1,1.018,1.734,2.298,2.708,3.22c3.526,3.335,3.654,5.15,0.359,8.502c-0.432-1.965-0.863-3.928-1.294-5.893
				c-0.432-0.067-0.863-0.134-1.294-0.201c-0.613,1.555-1.226,3.109-1.838,4.664C191.202,475.313,192.721,475.743,194.24,476.173z
				 M191.33,431.433c0-3.848-0.138-7.539,0.039-11.217c0.173-3.58-1.796-4.572-4.762-4.162c-4.312,0.595-8.566,1.618-12.883,2.166
				c-2.344,0.297-2.901,1.355-2.877,3.51c0.091,7.95,0.023,15.902,0.044,23.853c0.004,1.481,0.139,2.962,0.225,4.662
				c4.513,0,8.612,0.13,12.691-0.104c0.865-0.05,2.385-1.453,2.359-2.19c-0.181-5.336-0.681-10.662-1.082-16.021
				C187.637,431.726,189.263,431.597,191.33,431.433z M171.208,451.917c0,8.629,0,16.824,0,24.986c1.919,0,3.505,0,5.589,0
				c0-6.201,0-12.134,0-18.066c0.389,0.322,0.779,0.644,1.169,0.965c2.112-1.416,4.219-2.839,6.338-4.242
				c1.268-0.84,2.458-1.938,3.854-2.412c3.145-1.068,2.624-3.006,1.409-5.912c-1.701,5.625-5.944,4.668-9.795,4.681
				C176.991,451.925,174.21,451.917,171.208,451.917z M196.563,433.389c-3.275,0-6.161,0-9.202,0c0,4.315,0,8.432,0,12.498
				c3.257,0,6.139,0,9.202,0C196.563,441.671,196.563,437.747,196.563,433.389z"/>
		</g>
		<g>
			<path fill-rule="evenodd" clip-rule="evenodd" fill="#005461" d="M495.669,639.263c2.794-3.691,1.953-10.477-1.22-13.773
				c-0.971-1.01-1.63-3.135-1.252-4.396c0.377-1.26,2.111-2.682,3.467-2.955c2.469-0.498,5.098-0.225,7.661-0.227
				c11.921-0.008,23.842,0.014,35.763-0.012c2.452-0.004,4.77,0.295,5.575,3.018c0.759,2.57-0.244,4.49-2.769,5.578
				c-0.418,0.18-1.021,0.668-1.01,0.996c0.129,3.9-1.406,7.994,1.363,11.801c-1.876,0-3.627,0-4.499,0
				c0.093-3.951,0.242-7.805,0.175-11.654c-0.006-0.344-1.403-0.951-2.156-0.955c-11.92-0.045-23.841-0.014-35.761,0.021
				c-0.353,0-0.705,0.232-0.792,0.264c0,4.152,0,8.121,0,12.295C499.193,639.263,497.475,639.263,495.669,639.263z M519.257,625.075
				c6.795,0,13.591-0.008,20.387,0.004c2.114,0.004,4.55,0.078,4.591-2.746c0.041-2.813-2.328-2.859-4.487-2.855
				c-13.592,0.018-27.184,0.018-40.775-0.006c-2.19-0.004-4.469,0.127-4.393,2.947c0.069,2.555,2.245,2.674,4.288,2.664
				C505.665,625.052,512.461,625.071,519.257,625.075z"/>
			<path fill-rule="evenodd" clip-rule="evenodd" fill="#005461" d="M499.853,615.302c0-2.961,0-5.576,0-8.414
				c2.783,0,5.38,0,8.291,0c0,2.811,0,5.508,0,8.414C505.424,615.302,502.823,615.302,499.853,615.302z"/>
			<path fill-rule="evenodd" clip-rule="evenodd" fill="#005461" d="M538.829,615.286c-2.806,0-5.412,0-8.212,0
				c0-2.848,0-5.475,0-8.363c2.697,0,5.3,0,8.212,0C538.829,609.688,538.829,612.392,538.829,615.286z"/>
			<path fill-rule="evenodd" clip-rule="evenodd" fill="#005461" d="M523.489,606.894c0,2.764,0,5.379,0,8.305
				c-2.637,0-5.229,0-8.14,0c0-2.648,0-5.357,0-8.305C518.008,606.894,520.612,606.894,523.489,606.894z"/>
			<path fill-rule="evenodd" clip-rule="evenodd" fill="#005461" d="M471.57,463.267c0,2.941,0,5.884,0,8.827
				c0,1.537,0.233,3.119-0.064,4.597c-0.314,1.567-1.132,3.034-1.729,4.546c-0.594-1.503-1.646-2.991-1.702-4.514
				c-0.207-5.563-0.082-11.139-0.082-17.052c-4.715,0.214-4.689-2.025-3.52-5.489c2.355-6.976,4.363-8.5,11.493-6.727
				c1.669,0.414,3.211,2.474,4.226,4.135c1.694,2.772,4.275,3.078,5.771,1.061c2.724-3.676,6.005-2.258,9.607-2.375
				c0,2.727,0,5.274,0,8.223c-3.172-0.623-7.051,2.378-9.147-2.895c-3.865,3.115-6.572,1.294-9.43-2.021
				c0,7.464,0.114,14.934-0.085,22.393c-0.047,1.749-1.155,3.47-1.775,5.204c-0.503-1.71-1.355-3.4-1.441-5.13
				c-0.211-4.242-0.069-8.502-0.069-12.754C472.938,463.285,472.254,463.275,471.57,463.267z"/>
			<path fill-rule="evenodd" clip-rule="evenodd" fill="#005461" d="M529.641,481.183c-1.881,0-3.383,0-4.268,0
				c0.218-3.948,0.43-7.798,0.662-11.992c-13.104,0-25.709,0-38.259,0c0,4.057,0,7.923,0,11.951c-0.845,0-2.327,0-3.438,0
				c0.198-2.481,0.358-4.97,0.606-7.449c0.264-2.638-0.073-4.722-2.849-6.192c-0.879-0.466-1.403-3.291-0.831-4.363
				c0.68-1.275,2.699-2.527,4.173-2.569c8.371-0.242,16.751-0.119,25.129-0.122c5.445,0,10.908-0.251,16.326,0.138
				c1.833,0.132,4.307,1.508,5.056,3.023c0.516,1.046-1.104,3.61-2.354,4.951C527.828,470.454,527.461,477.53,529.641,481.183z
				 M506.318,467.341c6.694,0,13.394,0.157,20.077-0.122c1.491-0.063,2.918-1.656,4.375-2.546c-1.434-0.911-2.856-2.594-4.304-2.615
				c-13.245-0.205-26.496-0.204-39.741-0.003c-1.481,0.023-2.937,1.664-4.404,2.553c1.445,0.911,2.857,2.541,4.34,2.606
				C493.203,467.501,499.764,467.337,506.318,467.341z"/>
			<path fill-rule="evenodd" clip-rule="evenodd" fill="#005461" d="M563.854,450.823c0,3.047,0,5.638,0,8.467
				c-2.888,0-5.575,0-8.507,0c0-2.838,0-5.526,0-8.467C558.188,450.823,560.875,450.823,563.854,450.823z"/>
			<path fill-rule="evenodd" clip-rule="evenodd" fill="#005461" d="M561.006,470.118c0-2.901,0-5.503,0-8.398
				c2.833,0,5.529,0,8.528,0c0,2.696,0,5.394,0,8.398C566.817,470.118,564.133,470.118,561.006,470.118z"/>
			<path fill-rule="evenodd" clip-rule="evenodd" fill="#005461" d="M563.903,472.681c0,2.867,0,5.45,0,8.336
				c-2.819,0-5.501,0-8.499,0c0-2.661,0-5.343,0-8.336C558.068,472.681,560.754,472.681,563.903,472.681z"/>
			<path fill-rule="evenodd" clip-rule="evenodd" fill="#005461" d="M549.564,461.651c2.804,0,5.392,0,8.348,0
				c0,2.736,0,5.522,0,8.537c-2.77,0-5.457,0-8.348,0C549.564,467.262,549.564,464.569,549.564,461.651z"/>
			<path fill-rule="evenodd" clip-rule="evenodd" fill="#005461" d="M543.877,481.008c0-2.718,0-5.428,0-8.383
				c2.763,0,5.349,0,8.292,0c0,2.666,0,5.367,0,8.383C549.573,481.008,546.871,481.008,543.877,481.008z"/>
			<path fill-rule="evenodd" clip-rule="evenodd" fill="#005461" d="M566.895,481.053c0-2.916,0-5.597,0-8.472
				c2.831,0,5.392,0,8.286,0c0,2.854,0,5.53,0,8.472C572.499,481.053,569.933,481.053,566.895,481.053z"/>
			<path fill-rule="evenodd" clip-rule="evenodd" fill="#005461" d="M525.485,458.426c-2.691,0-5.135,0-7.899,0
				c0-2.594,0-5.133,0-7.987c2.575,0,5.11,0,7.899,0C525.485,453.139,525.485,455.682,525.485,458.426z"/>
			<path fill-rule="evenodd" clip-rule="evenodd" fill="#005461" d="M502.594,450.375c2.808,0,5.254,0,7.945,0
				c0,2.782,0,5.318,0,8.053c-2.737,0-5.187,0-7.945,0C502.594,455.824,502.594,453.283,502.594,450.375z"/>
			<path fill-rule="evenodd" clip-rule="evenodd" fill="#005461" d="M476.911,443.038c-2.373,1.431-3.792,2.964-4.854,2.747
				c-1.195-0.244-2.067-2.067-3.081-3.203c1.135-1.009,2.21-2.715,3.42-2.815C473.481,439.675,474.713,441.35,476.911,443.038z"/>
		</g>
		<g display="none">
			<path display="inline" fill-rule="evenodd" clip-rule="evenodd" fill="#005461" d="M860.888,609.23
				c1.652,0.146,2.897,0.258,4.329,0.387c0.136,1.514,0.258,2.875,0.391,4.369c2.09,0.242,4,0.461,5.91,0.68
				c0.028,0.334,0.057,0.668,0.086,1.002c-0.704,0.258-1.414,0.498-2.109,0.773c-1.339,0.533-2.669,1.086-4.003,1.629
				c1.266,0.447,2.526,0.908,3.798,1.334c0.775,0.258,1.57,0.461,2.356,0.688c-0.036,0.402-0.073,0.805-0.109,1.207
				c-1.298,0.098-2.634,0.039-3.878,0.348c-0.791,0.195-1.449,0.936-2.166,1.43c0.69,0.527,1.318,1.35,2.086,1.514
				c1.201,0.258,2.496,0.068,3.752,0.068c0.098,0.418,0.195,0.834,0.293,1.252c-1.045,0.291-2.113,0.52-3.13,0.891
				c-1.03,0.375-2.009,0.891-3.01,1.344c0.953,0.533,1.856,1.209,2.872,1.557c0.979,0.336,2.075,0.33,3.119,0.475
				c0.025,0.371,0.05,0.744,0.074,1.115c-1.851,0.299-3.701,0.596-5.84,0.941c-0.15,1.275-0.311,2.627-0.506,4.279
				c-1.377,0.193-2.839,0.396-4.42,0.617c-0.257,1.969-0.505,3.865-0.754,5.762c-0.377,0.008-0.754,0.018-1.132,0.025
				c-0.179-1-0.245-2.041-0.567-2.994c-0.353-1.043-0.941-2.006-1.428-3.004c-0.501,0.951-1.121,1.861-1.469,2.865
				c-0.35,1.012-0.427,2.117-0.623,3.182c-0.427-0.021-0.854-0.045-1.279-0.064c-0.098-1.418-0.053-2.867-0.354-4.24
				c-0.146-0.658-0.947-1.174-1.452-1.754c-0.508,0.574-1.348,1.09-1.457,1.73c-0.227,1.342-0.068,2.75-0.068,4.129
				c-0.485,0.082-0.971,0.162-1.456,0.244c-0.247-1.182-0.387-2.398-0.773-3.533c-0.309-0.904-0.917-1.707-1.394-2.557
				c-0.5,0.854-1.167,1.654-1.458,2.574c-0.34,1.074-0.353,2.256-0.507,3.391c-0.393,0.008-0.783,0.016-1.175,0.023
				c-0.278-1.885-0.556-3.768-0.854-5.797c-1.389-0.164-2.749-0.322-4.344-0.512c-0.143-1.398-0.282-2.758-0.448-4.381
				c-1.958-0.256-3.892-0.512-5.827-0.766c-0.039-0.346-0.078-0.689-0.118-1.035c1.304-0.229,2.648-0.334,3.899-0.732
				c0.803-0.256,1.467-0.945,2.193-1.441c-0.711-0.484-1.362-1.184-2.148-1.406c-1.276-0.359-2.641-0.406-3.968-0.586
				c0.015-0.354,0.028-0.707,0.043-1.061c0.77-0.174,1.561-0.283,2.304-0.535c1.271-0.428,2.512-0.945,3.766-1.426
				c-1.306-0.551-2.596-1.145-3.924-1.635c-0.654-0.24-1.379-0.291-2.072-0.428c-0.05-0.365-0.1-0.732-0.15-1.1
				c1.969-0.357,3.938-0.715,6.203-1.125c-0.282-4.451-4.574-1.182-6.637-4.141c2.339-0.297,4.201-0.533,6.332-0.803
				c0.174-1.313,0.354-2.668,0.568-4.283c1.311-0.168,2.656-0.34,4.266-0.545c0.299-1.928,0.605-3.918,0.912-5.906
				c0.383,0.004,0.767,0.006,1.148,0.01c0.18,1.506,0.217,3.051,0.605,4.5c0.168,0.623,1.066,1.051,1.632,1.568
				c0.39-0.547,1.007-1.051,1.122-1.65c0.283-1.469,0.336-2.982,0.48-4.477c0.452-0.004,0.904-0.006,1.357-0.01
				c0.137,1.361,0.117,2.766,0.469,4.07c0.208,0.771,1.002,1.387,1.533,2.072c0.49-0.727,1.252-1.398,1.41-2.191
				c0.24-1.203,0.063-2.49,0.063-3.742c0.477-0.082,0.952-0.162,1.428-0.244c0.24,1.178,0.386,2.385,0.752,3.521
				c0.299,0.928,0.863,1.77,1.31,2.648c0.536-0.816,1.284-1.57,1.554-2.469c0.334-1.115,0.272-2.352,0.382-3.537
				c0.396-0.031,0.791-0.063,1.187-0.094C860.197,605.191,860.53,607.141,860.888,609.23z M840.499,611.697
				c0,7.861,0,15.305,0,22.711c7.702,0,15.052,0,22.439,0c0-7.73,0-15.174,0-22.711C855.33,611.697,848.068,611.697,840.499,611.697
				z"/>
			<path display="inline" fill-rule="evenodd" clip-rule="evenodd" fill="#005461" d="M861.887,467.856c0,2.843,0,5.366,0,8.091
				c1.521,0.154,2.887,0.293,4.736,0.48c0.066,1.383,0.137,2.842,0.221,4.612c-19.035,0-37.813,0-57.141,0
				c0-7.83-0.76-15.853,0.422-23.577c0.4-2.624-0.106-6.95,3.434-9.145c0.633-0.392,0.319-2.412,0.332-3.683
				c0.037-3.447,0.013-6.894,0.013-10.694c2.621-0.134,4.987-0.254,7.718-0.395c0-6.234,0-12.333,0-18.771c9.125,0,17.883,0,27.11,0
				c0.147,3.341,0.302,6.813,0.485,10.981c3.447-2.965,6.36-5.432,9.23-7.947c2.53-2.217,4.625-1.975,7.471,0.027
				c5.117,3.6,10.734,6.479,16.06,9.794c0.976,0.608,1.376,2.161,2.358,2.733c1.279,0.747,3.074,1.624,4.298,1.262
				c3.534-1.047,4.442-0.762,5.587,2.449c-1.849,0.381-3.771,0.776-5.695,1.172c0.777,1.736,1.555,3.473,2.289,5.111
				c-3.363,0.918-3.87,0.512-5.133-3.557c-0.344-1.104-2.173-2.836-2.607-2.646c-3.183,1.387-4.975-1.148-7.155-2.273
				c-3.868-1.996-7.573-4.307-11.833-6.765c-2.796,3.203-5.648,6.431-8.436,9.714c-0.376,0.441-0.631,1.179-0.59,1.754
				c0.444,6.235,0.959,12.465,1.418,18.238c11.291,6.006,23.033,2.473,34.382,3.405c1.53,0.126,3.251-0.378,4.571,0.166
				c1.586,0.653,3.625,1.897,4.014,3.29c0.394,1.412-0.537,4.275-1.685,4.816c-2.689,1.273-2.55,3.196-2.44,5.352
				c0.152,2.969,0.395,5.934,0.615,9.16c-0.832,0-2.629,0-3.719,0c0.209-4.174,0.426-8.498,0.66-13.157
				C882.361,467.856,872.317,467.856,861.887,467.856z M840.779,455.537c0.541-6.68,1.104-12.928,1.529-19.184
				c0.246-3.628,0.19-7.283,4.232-9.162c0.413-0.191,0.697-1.071,0.711-1.64c0.068-3.038,0.032-6.079,0.032-9.241
				c-8.141,0-15.851,0-23.628,0c0,5.9,0,11.477,0,17.428c2.646,0,5.023,0,6.945,0c1.096,7.523,2.129,14.615,3.174,21.799
				C836.356,455.537,838.356,455.537,840.779,455.537z M833.697,474.765c0-5.222,0-11.075,0-17.063c-7.491,0-14.721,0-22.031,0
				c0,7.389,0,14.507,0,21.854c6.225,0,12.197,0,17.031,0C830.629,477.704,831.894,476.492,833.697,474.765z M842.414,456.139
				c-0.252,4.503,1.85,7.714,6.26,7.704c4.418-0.01,6.563-3.245,6.133-9.44c-0.479-6.881-1.043-13.754-1.574-20.631
				c-0.221-2.875-1.434-5.081-4.59-5.067c-3.147,0.015-4.35,2.212-4.563,5.097C843.573,440.679,843.055,447.557,842.414,456.139z
				 M861.855,465.965c10.878,0,21.363-0.012,31.848,0.01c2.23,0.004,4.353-0.313,4.381-3.073c0.027-2.772-2.082-3.122-4.32-3.115
				c-8.976,0.022-17.951,0.013-26.927,0.015c-1.614,0-3.228,0-4.981,0C861.855,462.015,861.855,463.65,861.855,465.965z
				 M815.676,448.48c4.74,0,9.264,0,13.783,0c0-4.525,0-8.763,0-12.93c-4.795,0-9.214,0-13.783,0
				C815.676,439.986,815.676,444.146,815.676,448.48z M831.979,451.064c-6.466,0-12.512,0-18.536,0c0,1.666,0,2.997,0,4.359
				c6.336,0,12.385,0,18.536,0C831.979,453.846,831.979,452.598,831.979,451.064z M855.536,432.333
				c2.87-3.284,5.835-6.443,8.471-9.856c0.63-0.816,0.676-2.914,0.063-3.623c-0.6-0.693-2.816-0.951-3.566-0.389
				c-3.426,2.566-6.585,5.488-9.592,8.068C852.568,428.611,853.893,430.272,855.536,432.333z M880.4,432.596
				c0.459-0.154,0.918-0.309,1.377-0.462c-0.24-1.06-0.127-2.678-0.776-3.087c-4.519-2.848-9.196-5.445-13.821-8.123
				c-0.422,0.291-0.845,0.581-1.268,0.871c0.503,1.111,0.699,2.705,1.56,3.252C871.684,427.716,876.073,430.106,880.4,432.596z"/>
			<path display="inline" fill-rule="evenodd" clip-rule="evenodd" fill="#005461" d="M893.9,446.513c0,3.146,0,6.037,0,9.149
				c-2.954,0-5.723,0-8.84,0c0-2.971,0-5.941,0-9.149C887.898,446.513,890.668,446.513,893.9,446.513z"/>
			<path display="inline" fill-rule="evenodd" clip-rule="evenodd" fill="#005461" d="M852.561,458.295
				c-1.917,1.163-3.068,2.416-3.983,2.264c-0.987-0.164-1.755-1.646-2.619-2.553c0.933-0.857,1.813-2.311,2.813-2.396
				C849.689,455.531,850.734,456.924,852.561,458.295z"/>
			<path display="inline" fill-rule="evenodd" clip-rule="evenodd" fill="#005461" d="M848.839,437.668
				c-1.347-1.717-2.763-2.738-2.716-3.686c0.047-0.959,1.506-2.525,2.413-2.572c0.891-0.048,2.483,1.387,2.626,2.341
				C851.302,434.686,850,435.835,848.839,437.668z"/>
			<path display="inline" fill-rule="evenodd" clip-rule="evenodd" fill="#005461" d="M827.7,437.796c0,2.509,0,4.754,0,7.204
				c-3.452,0-6.702,0-10.169,0c0-2.427,0-4.667,0-7.204C820.85,437.796,824.094,437.796,827.7,437.796z"/>
			<path display="inline" fill-rule="evenodd" clip-rule="evenodd" fill="#005461" d="M843.213,629.412c0-4.398,0-8.428,0-12.656
				c5.705,0,11.142,0,16.912,0c0,4.221,0,8.322,0,12.656C854.506,629.412,848.959,629.412,843.213,629.412z M858.1,618.936
				c-4.547,0-8.556,0-12.992,0c0,2.395-0.15,4.541,0.086,6.645c0.076,0.68,1.143,1.746,1.797,1.777
				c3.635,0.174,7.281,0.084,11.109,0.084C858.1,624.338,858.1,621.74,858.1,618.936z"/>
		</g>
		<g display="none">
			<path display="inline" fill-rule="evenodd" clip-rule="evenodd" fill="#005461" d="M1213.997,618.657
				c-0.833,0.309-1.724,0.959-2.483,0.83c-0.77-0.129-1.406-1.031-2.105-1.59c-11.657-9.303-27.605-8.955-38.806,0.848
				c-0.578,0.506-1.056,1.266-1.72,1.496c-0.697,0.238-1.648,0.156-2.314-0.158c-0.242-0.115-0.181-1.389,0.096-1.965
				c0.315-0.654,1.006-1.143,1.568-1.664c11.828-10.947,30.996-11.391,43.363-1.047c0.879,0.734,1.986,1.197,2.986,1.785
				C1214.387,617.681,1214.192,618.167,1213.997,618.657z"/>
			<path display="inline" fill-rule="evenodd" clip-rule="evenodd" fill="#005461" d="M1190.219,617.997
				c5.752,0.17,11.029,1.844,15.418,5.744c0.691,0.615,0.812,1.873,1.195,2.836c-1.086-0.121-2.428,0.127-3.217-0.42
				c-9.619-6.678-17.997-6.525-27.069,0.492c-0.797,0.617-2.151,0.514-3.249,0.744c0.383-1.064,0.465-2.445,1.197-3.145
				C1178.85,620.089,1184.213,618.274,1190.219,617.997z"/>
			<path display="inline" fill-rule="evenodd" clip-rule="evenodd" fill="#005461" d="M1190.022,627.839
				c2.94,1.326,5.509,2.338,7.901,3.668c0.6,0.332,0.635,1.682,0.93,2.564c-0.898,0.021-2.059,0.416-2.654,0.002
				c-4.242-2.949-8.258-2.885-12.354,0.293c-0.576,0.449-1.737,0.141-2.628,0.184c0.192-0.879,0.101-2.246,0.628-2.555
				C1184.412,630.487,1187.145,629.265,1190.022,627.839z"/>
			<path display="inline" fill-rule="evenodd" clip-rule="evenodd" fill="#005461" d="M1194.047,641.81
				c-1.429,0.887-2.909,2.525-4.268,2.43c-1.146-0.08-2.997-2.188-2.979-3.375c0.018-1.178,1.945-3.219,3.094-3.26
				c1.361-0.049,2.785,1.637,4.182,2.568C1194.066,640.72,1194.057,641.265,1194.047,641.81z"/>
			<path display="inline" fill-rule="evenodd" clip-rule="evenodd" fill="#005461" d="M1242.669,477.816c-0.126,0-1.118,0-2.042,0
				c0-3.488,0-6.855,0-10.449c-6.641,0-13.107,0-19.814,0c0,2.07,0,3.942,0,6.052c1.477,0.812,4.719,0.504,3.031,4.221
				c-8.305,0-16.809,0-25.268,0c-1.652-3.36,0.73-3.659,3.224-3.931c0-4.598,0-9.039,0-13.48c0.454,0.121,0.909,0.242,1.364,0.363
				c0.844-1.957,2.107-3.847,2.439-5.887c0.619-3.785,0.563-7.674,1.063-11.484c0.184-1.406,0.802-3.097,1.813-3.99
				c3.051-2.699,6.254-5.288,9.689-7.459c1.295-0.817,3.721-1.036,5.057-0.373c3.994,1.986,7.747,4.477,11.498,6.92
				c1.027,0.668,1.589,2.043,2.602,2.754c0.762,0.535,1.898,0.568,2.881,0.748c1.344,0.246,2.701,0.422,4.053,0.627
				c-0.052,0.303-0.104,0.607-0.156,0.91c-1.359,0.334-2.719,0.668-4.08,1.001c0.474,1.243,0.947,2.485,1.504,3.95
				c-0.754-0.16-2.207-0.039-2.564-0.607c-3.83-6.105-11.739-5.448-15.956-10.457c-6.977,6-8.779,12.305-5.935,20.462
				c0.275,0.794,1.87,1.567,2.875,1.597c6.921,0.199,13.854,0.045,20.768,0.365c1.904,0.088,4.473,0.887,5.462,2.27
				c1.526,2.139-1.358,3.514-2.103,5.229C1242.744,470.228,1243.07,474.006,1242.669,477.816z M1215.447,456.872
				c-0.05,0-0.1,0-0.149,0c-0.323-4.587-0.448-9.202-1.103-13.741c-0.178-1.23-1.955-2.229-2.998-3.332
				c-1.004,0.98-2.752,1.869-2.885,2.955c-0.714,5.826-1.162,11.696-1.412,17.563c-0.113,2.638,1.576,4.422,4.287,4.412
				c2.684-0.01,4.18-1.652,4.255-4.41C1215.473,459.17,1215.447,458.021,1215.447,456.872z M1220.778,465.83
				c7.487,0,14.61,0.093,21.724-0.107c0.973-0.027,1.906-1.514,2.857-2.326c-0.889-0.861-1.759-2.446-2.672-2.473
				c-7.232-0.205-14.475-0.113-21.909-0.113C1220.778,462.562,1220.778,463.915,1220.778,465.83z M1216.292,441.828
				c2.23-2.609,4.198-4.91,6.189-7.238c-3.387-2.352-4.065-2.045-9.063,3.75C1214.279,439.385,1215.146,440.438,1216.292,441.828z
				 M1223.816,433.872c1.402,4.029,8.718,8.083,11.912,6.839C1231.762,438.434,1228.248,436.416,1223.816,433.872z"/>
			<path display="inline" fill-rule="evenodd" clip-rule="evenodd" fill="#005461" d="M1162.236,446.023c0,5.201,0,10.027,0,15.043
				c2.4,0.204,4.464,0.379,6.731,0.572c-2.315,2.872-32.501,3.117-35.981-0.033c2.617-0.166,4.631-0.295,7.111-0.451
				c0-5.111,0-10.043,0-15.131C1147.584,446.023,1154.586,446.023,1162.236,446.023z M1142.334,448.18c0,4.295,0,8.182,0,12.236
				c5.995,0,11.711,0,17.604,0c0-4.164,0-8.145,0-12.236C1153.956,448.18,1148.342,448.18,1142.334,448.18z"/>
			<path display="inline" fill-rule="evenodd" clip-rule="evenodd" fill="#005461" d="M1187.16,409.029c0,6.95,0,13.554,0,20.413
				c-4.961,0-9.754,0-14.869,0c0-6.667,0-13.368,0-20.413C1177.073,409.029,1181.959,409.029,1187.16,409.029z M1173.969,411.124
				c0,5.112,0,9.792,0,14.578c3.896,0,7.524,0,11.188,0c0-4.992,0-9.679,0-14.578
				C1181.385,411.124,1177.848,411.124,1173.969,411.124z"/>
			<path display="inline" fill-rule="evenodd" clip-rule="evenodd" fill="#005461" d="M1188.498,432.217
				c0.342,1.158,0.684,2.316,1.025,3.473c0.308,0.005,0.615,0.009,0.922,0.012c0-3.126,0-6.254,0-9.38
				c0.531-0.222,1.062-0.444,1.593-0.665c-1.017,5.102,2.804,5.719,5.181,7.926c1.289,1.197-0.013,5.463-0.618,8.24
				c-0.163,0.748-2.003,1.305-3.163,1.627c-2.908,0.809-4.388-1.138-5.012-3.417c-0.679-2.481-0.72-5.139-1.039-7.719
				C1187.757,432.281,1188.128,432.249,1188.498,432.217z"/>
			<path display="inline" fill-rule="evenodd" clip-rule="evenodd" fill="#005461" d="M1160.23,465.678
				c14.412,11.584,22.279,12.102,39.729,2.614c-3.05,5.024-13.219,8.44-22.199,7.46
				C1170.244,474.93,1161.721,470.032,1160.23,465.678z"/>
			<path display="inline" fill-rule="evenodd" clip-rule="evenodd" fill="#005461" d="M1236.399,452.161c1.972,0,3.687,0,5.636,0
				c0,1.89,0,3.608,0,5.612c-1.785,0-3.594,0-5.636,0C1236.399,456.014,1236.399,454.301,1236.399,452.161z"/>
			<path display="inline" fill-rule="evenodd" clip-rule="evenodd" fill="#005461" d="M1189.245,420.074
				c7.228,0.023,16.405,7.668,18.8,15.85C1203.898,428.097,1197.677,422.76,1189.245,420.074z"/>
			<path display="inline" fill-rule="evenodd" clip-rule="evenodd" fill="#005461" d="M1230.881,421.604
				c-7.113-5.58-13.613-5.303-20.662,0.668C1214.801,414.785,1226.581,414.524,1230.881,421.604z"/>
			<path display="inline" fill-rule="evenodd" clip-rule="evenodd" fill="#005461" d="M1169.232,420.65
				c-4.896,4.463-9.449,8.611-14.293,13.026C1158.326,427.654,1162.9,423.466,1169.232,420.65z"/>
			<path display="inline" fill-rule="evenodd" clip-rule="evenodd" fill="#005461" d="M1227.672,423.928
				c-4.662-3.149-9.137-3.109-13.723,0.584C1216.236,419.318,1223.646,419.045,1227.672,423.928z"/>
			<path display="inline" fill-rule="evenodd" clip-rule="evenodd" fill="#005461" d="M1186.969,400.855
				c-5.025-3.381-9.85-3.155-15.297,0.986C1176.109,396.335,1182.369,396.178,1186.969,400.855z"/>
		</g>
	</g>
	<g display="none">
		<circle display="inline" fill-rule="evenodd" clip-rule="evenodd" fill="#005461" cx="497.177" cy="621.927" r="1.677"/>
		<circle display="inline" fill-rule="evenodd" clip-rule="evenodd" fill="#005461" cx="505.177" cy="621.927" r="1.677"/>
		<circle display="inline" fill-rule="evenodd" clip-rule="evenodd" fill="#005461" cx="514.177" cy="621.927" r="1.677"/>
		<circle display="inline" fill-rule="evenodd" clip-rule="evenodd" fill="#005461" cx="524.177" cy="621.927" r="1.677"/>
		<circle display="inline" fill-rule="evenodd" clip-rule="evenodd" fill="#005461" cx="534.177" cy="621.927" r="1.677"/>
		<circle display="inline" fill-rule="evenodd" clip-rule="evenodd" fill="#005461" cx="541.177" cy="621.927" r="1.677"/>
	</g>
</g>
</svg>
